<svg version="1.1" id="Layer_1" xmlns="http://www.w3.org/2000/svg" xmlns:xlink="http://www.w3.org/1999/xlink" x="0px" y="0px"
        	 viewBox="0 0 264.1 36.6" style="enable-background:new 0 0 264.1 36.6;" xml:space="preserve">
        <style type="text/css">
        	.st0{fill:#FFFFFF;}
        	.st1{fill:none;stroke:#FFFFFF;stroke-miterlimit:10;}
        </style>
        <title>QCC_full</title>
        <g id="logo">
        	<path id="_Path_" class="st0" d="M35.7,24.5c0.7-2,1.1-4.1,1.1-6.2c0-4.8-1.8-9.3-5.2-12.7C28.3,2.2,23.7,0.3,19,0.2l0,0v9.4
        		c4.8,0.5,8.3,4.7,7.9,9.5c-0.4,4.2-3.7,7.5-7.9,7.9v9.4l0,0c2.4-0.1,4.9-0.6,7.1-1.6l1.3,1.6H44L35.7,24.5z"/>
        	<path id="_Path_2" class="st0" d="M17.8,0C13,0.1,8.5,2,5.2,5.5C1.9,8.9,0,13.4,0,18.2c0,4.8,1.8,9.3,5.2,12.7
        		c3.3,3.4,7.8,5.4,12.6,5.5l0,0v-4.2C10.3,32,4.3,25.8,4.2,18.3c0.1-7.5,6.1-13.7,13.6-13.9V0z"/>
        	<path id="_Path_3" class="st0" d="M17.8,27c-4.8-0.3-8.4-4.5-8.1-9.3c0.3-4.4,3.8-7.8,8.1-8.1V5.1C10.7,5.3,5,11.2,5,18.3l0,0
        		c0.1,7.1,5.7,12.9,12.8,13.2V27z"/>
        	<path class="st0" d="M19.4,9.5L19.4,9.5c0.1,0,0.2-0.1,0.2-0.2V9.1c0-0.1-0.1-0.2-0.2-0.2l0,0c-0.1,0-0.2,0.1-0.2,0.2v0.2
        		C19.2,9.4,19.3,9.5,19.4,9.5z"/>
        	<path class="st0" d="M53.9,36.5c-2.4,0-3.9-2-3.9-4.8s1.5-4.8,3.9-4.8c1.3-0.1,2.5,0.6,3.2,1.7l-1.2,0.8c-0.4-0.7-1.1-1.1-1.9-1.1
        		c-1.6,0-2.5,1.3-2.5,3.4c0,2.1,0.9,3.4,2.5,3.4c0.9,0.1,1.7-0.4,2-1.2l1.2,0.8C56.5,35.9,55.2,36.6,53.9,36.5z"/>
        	<path class="st0" d="M64.5,36.5c-2.3,0-3.9-1.9-3.9-4.8s1.6-4.8,4-4.8c2.4,0,3.9,1.9,3.9,4.8S66.8,36.5,64.5,36.5z M64.5,28.3
        		c-1.5,0-2.5,1.3-2.5,3.4s1.1,3.4,2.6,3.4c1.5,0,2.5-1.3,2.5-3.4S65.9,28.3,64.5,28.3z"/>
        	<path class="st0" d="M79.5,36.4v-6.5c-0.1,0.3-0.4,0.9-0.6,1.5l-2.3,5.2l-2.2-5.2c-0.2-0.5-0.5-1.2-0.6-1.5v6.5h-1.3v-9.3h1.4
        		L76,32c0.2,0.5,0.4,1.1,0.6,1.6c0.1-0.4,0.4-1,0.6-1.6l2-4.9h1.5v9.3H79.5z"/>
        	<path class="st0" d="M92.4,36.4v-6.5c-0.1,0.3-0.4,0.9-0.6,1.5l-2.3,5.2l-2.2-5.2c-0.2-0.5-0.5-1.2-0.6-1.5v6.5h-1.3v-9.3h1.4
        		l2.1,4.9c0.2,0.5,0.4,1.1,0.6,1.6c0.1-0.4,0.4-1,0.6-1.6l2-4.9h1.5v9.3H92.4z"/>
        	<path class="st0" d="M101.7,36.5c-2.3,0-3.5-1.5-3.5-4v-5.4h1.4v5.3c0,1.7,0.7,2.7,2.1,2.7s2.1-0.9,2.1-2.6v-5.4h1.4v5.4
        		C105.3,35.1,104,36.5,101.7,36.5z"/>
        	<path class="st0" d="M115.5,36.4l-3.7-5.8c-0.2-0.4-0.4-0.7-0.7-1.1v6.9h-1.4v-9.3h1.4l3.5,5.7c0.2,0.5,0.5,0.9,0.8,1.3v-7h1.4v9.3
        		H115.5z"/>
        	<path class="st0" d="M121.5,36.4v-9.3h1.4v9.3H121.5z"/>
        	<path class="st0" d="M131,28.4v8h-1.4v-8h-2.7V27h6.8v1.4H131z"/>
        	<path class="st0" d="M141.8,32.7v3.7h-1.4v-3.7l-3.3-5.6h1.6l1.4,2.6c0.3,0.6,0.8,1.5,1,1.8c0.2-0.3,0.6-1.2,1-1.8l1.5-2.6h1.6
        		L141.8,32.7z"/>
        	<path class="st0" d="M158.2,36.5c-2.4,0-3.9-2-3.9-4.8s1.5-4.8,3.9-4.8c1.3-0.1,2.5,0.6,3.2,1.7l-1.2,0.8c-0.4-0.7-1.1-1.1-1.9-1.1
        		c-1.6,0-2.5,1.3-2.5,3.4c0,2.1,0.9,3.4,2.5,3.4c0.9,0.1,1.7-0.4,2-1.2l1.2,0.8C160.8,35.9,159.5,36.6,158.2,36.5z"/>
        	<path class="st0" d="M168.8,36.5c-2.3,0-3.9-1.9-3.9-4.8s1.6-4.8,4-4.8s3.9,1.9,3.9,4.8S171.1,36.5,168.8,36.5z M168.8,28.3
        		c-1.5,0-2.5,1.3-2.5,3.4s1.1,3.4,2.6,3.4s2.5-1.3,2.5-3.4S170.2,28.3,168.8,28.3z"/>
        	<path class="st0" d="M176.9,36.4v-9.3h1.4V35h4.6v1.4H176.9z"/>
        	<path class="st0" d="M186.9,36.4v-9.3h1.4V35h4.6v1.4H186.9z"/>
        	<path class="st0" d="M197,36.4v-9.3h6v1.3h-4.6v2.3h2.7v1.4h-2.7V35h4.8v1.4H197z"/>
        	<path class="st0" d="M210.3,36.5c-2.4,0-3.9-2-3.9-4.8s1.5-4.8,3.9-4.8c1.3-0.1,2.5,0.6,3.2,1.7l-1.2,0.8c-0.4-0.7-1.1-1.1-1.9-1.1
        		c-1.6,0-2.5,1.3-2.5,3.4c0,2.1,0.9,3.4,2.5,3.4c1.1,0.1,2-0.7,2.1-1.8c0-0.1,0-0.2,0-0.3H211v-1.3h2.9v1.1
        		C213.8,35.1,212.4,36.5,210.3,36.5z"/>
        	<path class="st0" d="M217.7,36.4v-9.3h6v1.3h-4.6v2.3h2.7v1.4h-2.7V35h4.8v1.4H217.7z"/>
        	<path class="st0" d="M60.2,24.1L59.3,23c-1,0.5-2,0.7-3.1,0.7c-3.3,0-6-2.7-6-6s2.7-6,6-6c3.2-0.2,6,2.3,6.2,5.5c0,0.1,0,0.3,0,0.5
        		c0,1.4-0.5,2.8-1.4,3.9l1.9,1.9L60.2,24.1z M58.8,19.5c0.3-0.5,0.5-1,0.5-1.6c0-1.7-1.4-3.2-3.1-3.2c-1.7,0-3.2,1.4-3.2,3.1
        		c0,1.7,1.4,3.2,3.1,3.2c0,0,0.1,0,0.1,0c0.3,0,0.6,0,0.9-0.1l-1.8-1.8l2.7-0.3L58.8,19.5z"/>
        	<path class="st0" d="M75.9,12.2v6.3c0,1.4-0.1,2.9-1.2,3.9c-2.2,1.6-5.2,1.6-7.4,0c-0.9-1.1-1.4-2.5-1.2-3.9v-6.3H69v5.9
        		c0,1.5,0.1,3,2,3s2-1.6,2-3v-5.9H75.9z"/>
        	<path class="st0" d="M83.1,14.6v1.9h3.3V19h-3.3v1.9h3.5v2.5h-6.4V12.2h6.4v2.5h-3.5V14.6z"/>
        	<path class="st0" d="M93.7,14.6v1.9H97V19h-3.3v1.9h3.5v2.5h-6.4V12.2h6.4v2.5h-3.5V14.6z"/>
        	<path class="st0" d="M101.4,12.2h2.9l5.3,6.8l0,0v-6.8h2.9v11.2h-2.9l-5.3-6.9l0,0v6.9h-2.9V12.2z"/>
        	<path class="st0" d="M123.1,15c-0.5-0.4-1.2-0.7-1.9-0.7c-0.5,0-1.2,0.3-1.2,0.9s0.8,0.9,1.3,1.1l0.7,0.2c1.6,0.5,2.8,1.2,2.8,3.1
        		c0.1,1.1-0.4,2.2-1.2,3c-0.9,0.7-2,1.1-3.2,1.1c-1.4,0-2.8-0.5-3.9-1.3l1.2-2.3c0.7,0.7,1.6,1.1,2.6,1.2c0.7,0,1.4-0.3,1.4-1.1
        		s-1.1-1.1-1.8-1.3c-1.8-0.5-3-1-3-3.2c-0.1-2,1.5-3.7,3.5-3.8c0.1,0,0.3,0,0.4,0c1.2,0.1,2.4,0.4,3.5,0.9L123.1,15z"/>
        	<path class="st0" d="M128.6,23.4V12.2h4.2c2,0,3.3,0.8,3.3,2.9c0.1,0.9-0.4,1.8-1.2,2.3l0,0c1.6,0.2,2.3,1.3,2.3,2.9
        		c0,2.3-2,3.1-4.1,3.1H128.6z M131.5,16.6h0.3c0.8,0,1.6-0.1,1.6-1.1s-0.9-1.1-1.7-1.1h-0.2L131.5,16.6L131.5,16.6z M131.5,21.1h0.4
        		c0.9,0,2.3,0,2.3-1.2c0-1.4-1.4-1.2-2.4-1.2h-0.3V21.1z"/>
        	<path class="st0" d="M152.9,17.6c0.2,3.4-2.4,6.4-5.8,6.6c-3.4,0.2-6.4-2.4-6.6-5.8s2.4-6.4,5.8-6.6c0.1,0,0.3,0,0.4,0
        		C150,11.7,152.8,14.3,152.9,17.6C152.9,17.6,152.9,17.6,152.9,17.6z M143.5,17.6c-0.1,1.8,1.3,3.2,3.1,3.3c0,0,0.1,0,0.1,0
        		c1.8,0,3.2-1.5,3.2-3.3c0,0,0,0,0,0c-0.1-1.8-1.7-3.1-3.5-2.9C144.9,14.8,143.6,16,143.5,17.6z"/>
        	<path class="st0" d="M166,23.4h-3.6l-2.7-4.3l0,0v4.3h-2.9V12.2h4.4c2.2,0,3.9,1.1,3.9,3.4c0.1,1.5-1,2.9-2.5,3.2L166,23.4z
        		 M159.6,17.2h0.3c1,0,2-0.2,2-1.4s-1.1-1.4-2-1.4h-0.3V17.2z"/>
        	<path class="st0" d="M181.1,17.6c0.2,3.4-2.4,6.4-5.8,6.6c-3.4,0.2-6.4-2.4-6.6-5.8s2.4-6.4,5.8-6.6c0.1,0,0.3,0,0.4,0
        		C178.2,11.7,181,14.3,181.1,17.6C181.1,17.6,181.1,17.6,181.1,17.6z M171.7,17.6c-0.1,1.8,1.3,3.2,3.1,3.3c0,0,0.1,0,0.1,0
        		c1.8,0,3.2-1.5,3.2-3.3c0,0,0,0,0,0c-0.1-1.7-1.5-3-3.2-3C173.2,14.6,171.8,15.9,171.7,17.6z"/>
        	<path class="st0" d="M194.6,12.2v6.3c0,1.4-0.1,2.9-1.2,3.9c-2.2,1.6-5.2,1.6-7.4,0c-0.9-1.1-1.4-2.5-1.2-3.9v-6.3h2.9v5.9
        		c0,1.5,0.1,3,2,3s2-1.6,2-3v-5.9H194.6z"/>
        	<path class="st0" d="M210,17.1c0.1,1.5-0.2,3.1-1.1,4.4c-1.1,1.5-2.8,2.3-4.6,2.2c-3.1,0.2-5.8-2.2-6-5.4c0-0.2,0-0.3,0-0.5
        		c-0.1-3.2,2.3-5.9,5.5-6c0.2,0,0.4,0,0.6,0c2.2-0.2,4.2,1.1,5,3.1l-2.8,1.2c-0.3-1.1-1.3-1.8-2.4-1.8c-1.9,0-2.9,1.8-2.9,3.5
        		s1,3.5,3,3.5c1.1,0.1,2.2-0.7,2.3-1.8c0,0,0-0.1,0-0.1h-2.4v-2.3H210z"/>
        	<path class="st0" d="M220.9,16.5v-4.3h2.9v11.2h-2.9v-4.6h-4.2v4.6h-2.9V12.2h2.9v4.3H220.9z"/>
        	<polygon class="st0" points="248.6,24.2 248.6,30.7 242.8,24.2 239.8,24.2 239.8,24.2 239.8,36.3 243.1,36.3 243.1,29.8
        		248.8,36.3 251.9,36.3 251.9,24.2 	"/>
        	<path class="st0" d="M264.1,19.1v-2.5l0,0v-4.3h-3.4v6.8c0,0.3,0,0.5-0.1,0.8c-0.1,0.3-0.3,0.6-0.6,0.8c-0.6,0.4-1.3,0.7-2,0.7l0,0
        		c-0.7,0-1.4-0.3-2-0.7c-0.3-0.2-0.5-0.5-0.6-0.8c-0.1-0.3-0.1-0.5-0.1-0.8v-6.8h-3.4v4.3l0,0v3.3l0,0c0,2.7,2.9,4.8,5.9,4.9h0.2
        		c3,0,5.9-2.1,5.9-4.9l0,0v-0.8H264.1z"/>
        	<path class="st0" d="M248.3,19.9c-0.5,0.9-1.5,1.5-2.6,1.5l0,0c-1.8,0-3.2-1.4-3.2-3.2c0-1.8,1.4-3.2,3.2-3.2l0,0
        		c1.1,0,2.1,0.6,2.6,1.5h3.6c0-2.7-2.9-4.8-5.9-4.9h-0.4c-2.3,0-4.4,1.2-5.6,3.2c-0.6,1-0.9,2.1-0.9,3.3l0,0c0,1.2,0.3,2.3,0.9,3.3
        		c1.2,2,3.3,3.2,5.6,3.2h0.4c3-0.1,5.9-2.1,5.9-4.9h-3.6V19.9z"/>
        	<polygon class="st0" points="260.7,24.2 258,29.7 255.2,24.2 251.9,24.2 256.3,33.1 256.3,36.3 259.6,36.3 259.6,33.1 264.1,24.2
        		"/>
        	<line class="st1" x1="231.7" y1="12.1" x2="231.7" y2="36.4"/>
        </g>
        </svg>